<svg id="Filled_stroke_Ex" height="512" viewBox="0 0 512 512" width="512" xmlns="http://www.w3.org/2000/svg" data-name="Filled stroke Ex"><g><g><path d="m24 487.098v-261.269l104-38.422 128 38.422 128-38.422 104 38.422v253.585l-104-38.422-128 46.106-128-46.106z" fill="#abbf71"/><g fill="#d4d580"><path d="m488 280-48 64v120l-56-24-16 8v-96h-72l8-72h88l56-72 40 16z"/><path d="m208 144v328l-80-31.008v-72.992h-104v-72h64l-8-88z"/></g></g><g><path d="m396.8 164.8a140.8 140.8 0 0 0 -281.6 0c0 105.6 140.8 228.8 140.8 228.8s140.8-123.2 140.8-228.8z" fill="#fdcd87"/><path d="m320 123.2v-35.2h-24v16l-40-32-80 64v112h160v-112z" fill="#fa5d3f"/><path d="m256 401.6a7.985 7.985 0 0 1 -5.268-1.979 649.7 649.7 0 0 1 -71.379-75.821c-47.877-59.846-72.153-113.34-72.153-159 0-82.049 66.752-148.8 148.8-148.8a147.222 147.222 0 0 1 67.416 16.114 150.157 150.157 0 0 1 51.376 43.063l-12.766 9.646a131.841 131.841 0 0 0 -106.026-52.823c-73.226 0-132.8 59.574-132.8 132.8 0 89.334 107.517 194.492 132.8 217.98 25.283-23.488 132.8-128.646 132.8-217.98a132.839 132.839 0 0 0 -16.9-64.885l13.954-7.83a148.887 148.887 0 0 1 18.946 72.715c0 45.657-24.276 99.151-72.153 159a649.7 649.7 0 0 1 -71.379 75.824 7.985 7.985 0 0 1 -5.268 1.976z"/><path d="m248 112h16v16h-16z"/><path d="m256 160a32 32 0 0 1 32 32v56a0 0 0 0 1 0 0h-64a0 0 0 0 1 0 0v-56a32 32 0 0 1 32-32z" fill="#fffefd"/><path d="m288 256h-64a8 8 0 0 1 -8-8v-56a40 40 0 0 1 80 0v56a8 8 0 0 1 -8 8zm-56-16h48v-48a24 24 0 0 0 -48 0z"/><path d="m336 256h-160a8 8 0 0 1 -8-8v-112a8 8 0 0 1 3-6.247l80-64a8 8 0 0 1 10 0l27.026 21.622a8 8 0 0 1 7.974-7.375h24a8 8 0 0 1 8 8v31.355l13 10.4a8 8 0 0 1 3 6.245v112a8 8 0 0 1 -8 8zm-152-16h144v-100.155l-13-10.4a8 8 0 0 1 -3-6.247v-27.198h-8v8a8 8 0 0 1 -13 6.247l-35-28-72 57.6z"/><circle cx="256" cy="312" fill="#fa5d3f" r="24"/><path d="m256 344a32 32 0 1 1 32-32 32.036 32.036 0 0 1 -32 32zm0-48a16 16 0 1 0 16 16 16.019 16.019 0 0 0 -16-16z"/></g></g><g><path d="m380.422 432.845a8 8 0 0 1 6.729-.2l44.849 19.223v-35.868h-56v19.056z" fill="none"/><path d="m496 392v-166.171a8 8 0 0 0 -5.228-7.5l-69.913-25.829-5.545 15 17.817 6.583-45.044 57.917h-4.087v16h8a8 8 0 0 0 6.315-3.088l50.562-65.012 31.123 11.5v45.932l-46.4 61.868a8 8 0 0 0 -1.6 4.8v106.2l-45.228-16.71a8 8 0 0 0 -5.483-.022l-5.289 1.902v-83.37a8 8 0 0 0 -8-8h-40v16h32v81.133l-104 37.467-40-14.408v-88.192h-16v82.423l-64-23.053v-67.37a8 8 0 0 0 -8-8h-96v-56h56a8 8 0 0 0 7.967-8.724l-7.7-84.663 8.415-3.109-5.541-15.004-69.913 25.825a8 8 0 0 0 -5.228 7.5v30.175h16v-24.6l40.727-15.046 6.513 71.646h-47.24v-16h-16v215.1a8 8 0 0 0 11.242 7.314l101.066-44.806 124.981 45.019a8 8 0 0 0 5.422 0l125.254-45.118 101.263 37.411a8 8 0 0 0 10.772-7.5v-71.42h-16v59.93l-32-11.822v-109.441l32-42.667v88zm-464-16h88v59.788l-88 39.012z"/></g></svg>